<svg xmlns="http://www.w3.org/2000/svg" width="512" height="512" viewBox="0 0 430.123 430.123"><path d="M388.432 119.12H280.66V92.35H388.44l-.01 26.77zm-179.52 109.775c6.954 10.77 10.43 23.85 10.43 39.203 0 15.878-3.918 30.122-11.89 42.704-5.07 8.326-11.367 15.36-18.932 21.02-8.52 6.548-18.607 11.038-30.203 13.437-11.633 2.403-24.224 3.617-37.787 3.617H0V81.247h129.25c32.58.53 55.676 9.97 69.315 28.506 8.184 11.37 12.24 25.01 12.24 40.868 0 16.362-4.104 29.454-12.368 39.4-4.597 5.577-11.388 10.65-20.378 15.23 13.617 4.985 23.95 12.835 30.854 23.644zm-147.2-42.135h56.632c11.638 0 21.046-2.212 28.292-6.634 7.24-4.415 10.854-12.263 10.854-23.53 0-12.45-4.784-20.712-14.375-24.69-8.244-2.763-18.792-4.186-31.59-4.186H61.722v59.04zm101.23 77.515c0-13.902-5.682-23.513-17.023-28.67-6.342-2.93-15.3-4.43-26.763-4.536H61.722v71.322h56.556c11.62 0 20.612-1.52 27.102-4.694 11.704-5.834 17.573-16.937 17.573-33.422zm265.466-43.54c1.302 8.756 1.89 21.46 1.652 38.065H290.493c.77 19.266 7.42 32.74 20.035 40.45 7.607 4.835 16.83 7.196 27.63 7.196 11.388 0 20.67-2.88 27.815-8.797 3.893-3.137 7.327-7.565 10.296-13.152h51.16c-1.34 11.38-7.5 22.92-18.57 34.648-17.15 18.64-41.205 27.988-72.097 27.988-25.52 0-48.01-7.883-67.533-23.592-19.457-15.764-29.23-41.33-29.23-76.795 0-33.257 8.773-58.712 26.378-76.43 17.67-17.75 40.474-26.586 68.583-26.586 16.66 0 31.68 2.978 45.08 8.965 13.357 5.993 24.396 15.425 33.1 28.388 7.868 11.416 12.928 24.616 15.29 39.653zm-50.357 4.994c-.938-13.322-5.386-23.405-13.395-30.296-7.943-6.9-17.866-10.38-29.706-10.38-12.886 0-22.836 3.708-29.906 10.996-7.118 7.273-11.547 17.16-13.362 29.68h86.37z" fill="#fff"/></svg>