<svg xmlns="http://www.w3.org/2000/svg" width="64.001" height="64"><circle fill="#fff" cx="32.064" cy="31.788" r="29.013"/><path d="M31.944 0c8.953 0 16.533 3.105 22.744 9.314C60.895 15.486 64 23.046 64 32s-3.05 16.457-9.146 22.514C48.418 60.838 40.78 64 31.943 64c-8.65 0-16.153-3.143-22.514-9.43C3.144 48.286 0 40.762 0 32c0-8.724 3.144-16.285 9.43-22.685C15.64 3.105 23.145 0 31.944 0zm.117 5.77c-7.275 0-13.43 2.57-18.458 7.715-5.22 5.297-7.83 11.468-7.83 18.514 0 7.125 2.6 13.257 7.77 18.4 5.18 5.182 11.352 7.77 18.516 7.77 7.123 0 13.332-2.608 18.627-7.828C55.714 45.467 58.23 39.354 58.23 32c0-7.312-2.554-13.484-7.656-18.514C45.505 8.342 39.334 5.77 32.06 5.77zm12.057 18.685v5.485H20.86v-5.485h23.257zm0 10.287v5.48H20.86v-5.48h23.257z"/></svg>