<svg xmlns="http://www.w3.org/2000/svg" xmlns:xlink="http://www.w3.org/1999/xlink" viewBox="0 0 153.9 50.9" fill="#fff"><path d="M20.1 22.4V7.9l-5.7 14.6h-4L4.7 8.1v14.4H0V.5h6.4l6 14.9L18.1.5h6.7v22h-4.7zm8.6-7.9V.5h4.9v13.6c0 2.7 1.5 4 3.8 4s3.8-1.3 3.8-4V.5h4.9v14c0 5.5-3.9 8.4-8.7 8.4s-8.7-2.9-8.7-8.4z"/><use xlink:href="#B"/><path d="M69.3 22.4V.4h13.9V5h-9v4.2h8.2v4.3h-8.2v4.2h9.1v4.7h-14zM87 14.5V.5h4.9v13.6c0 2.7 1.5 4 3.8 4s3.8-1.3 3.8-4V.5h4.9v14c0 5.5-3.9 8.4-8.7 8.4S87 20 87 14.5zm41.8 7.9V7.9l-5.7 14.6h-4l-5.7-14.4v14.4h-4.7V.5h6.4l6 14.9L126.8.5h6.7v22h-4.7z"/><use xlink:href="#B" x="88"/><path d="M16.6 28.5h3.2l-8.5 22h-3L0 28.5h3.2l6.8 18 6.6-18zm6.8 21.9v-22h3.1v22h-3.1zm7-11c0-7.3 5.5-11.4 10.9-11.4 5 0 8.6 2.7 9.7 7l-2.8 1c-.8-3.3-3.3-5.2-6.9-5.2-4 0-7.8 2.9-7.8 8.7 0 5.7 3.8 8.7 7.8 8.7 3.8 0 6.1-2.3 7-5.3l2.7 1C49.8 48 46.3 51 41.3 51c-5.7-.1-10.9-4.2-10.9-11.6zm32.4-8.1v19.2h-3V31.3h-7.3v-2.8h17.7v2.8h-7.4zM82.1 28c5.5 0 11 4.1 11 11.4s-5.5 11.5-11 11.5-11-4.1-11-11.5S76.6 28 82.1 28zm0 20.1c4.1 0 7.9-2.9 7.9-8.7 0-5.7-3.8-8.7-7.9-8.7s-7.9 2.9-7.9 8.7 3.8 8.7 7.9 8.7zm20.8-6.6h-3.3v9h-3.1v-22h8.3c4.2 0 6.7 2.9 6.7 6.5 0 3.2-2 5.6-5.3 6.2l5.2 9.2h-3.5l-5-8.9zm1.4-2.8c2.5 0 4.2-1.5 4.2-3.7 0-2.3-1.7-3.8-4.2-3.8h-4.7v7.5h4.7zm11.9 11.7v-22h3.1v22h-3.1zm21.7-6.1h-9.7l-2.3 6.1h-3.3l8.7-22h3.5l8.7 22h-3.3l-2.3-6.1zm-8.7-2.8h7.6l-3.8-9.9-3.8 9.9z"/><defs ><path id="B" d="M61.1 7.1c-.2-1-1-2.8-3.7-2.8-1.8 0-3 1.1-3 2.4 0 1.1.7 1.8 2.2 2.1l2.9.6c4.2.8 6.4 3.5 6.4 6.6 0 3.4-2.9 6.9-8.1 6.9-6.1 0-8.7-3.9-9-7l4.5-1.1c.2 2 1.6 3.8 4.6 3.8 1.9 0 3.1-.9 3.1-2.3 0-1.1-.9-1.9-2.4-2.2l-3-.6c-3.7-.7-6-3.2-6-6.4 0-4.2 3.7-7.1 7.9-7.1 5.5 0 7.6 3.3 8 5.9l-4.4 1.2z"/></defs></svg>