<svg xmlns="http://www.w3.org/2000/svg" viewBox="0 0 257 144"><path d="M129.118 1.934h1.934l14.218 20.593V1.934h1.862v23.852h-1.827L130.944 5.05v20.736h-1.826V1.934zm21.77 15.15c0-4.835 2.794-8.774 7.342-8.774 4.37 0 6.77 3.5 6.4 8.38h-11.783v.394c.036 3.904 1.684 7.485 5.767 7.485a8.47 8.47 0 0 0 4.942-1.612l.788 1.468a9.82 9.82 0 0 1-5.802 1.755c-5.23 0-7.664-4.2-7.664-9.097zm11.9-1.934c-.036-2.578-1.36-5.23-4.62-5.23-2.973 0-4.692 2.292-5.193 5.23h9.813zm3.87-6.447h2.005l4.155 14.218 4.477-14.218h1.827l4.477 14.254 4.2-14.254h1.863l-5.158 17.083h-1.72l-4.62-14.397-4.62 14.397h-1.72zm39.46 8.094l-7.986-14.863h2.22l6.77 12.893h.072l6.77-12.893h2.006l-7.915 14.863v9h-1.934v-9zm8.24.466c0-4.298 2.292-8.954 7.664-8.954s7.843 4.62 7.843 8.882c0 4.297-2.435 9-7.808 9s-7.7-4.62-7.7-8.918zm13.538 0c0-3.832-2.042-7.342-5.945-7.342-3.868 0-5.623 3.438-5.623 7.27 0 3.868 1.898 7.378 5.766 7.378 3.904 0 5.802-3.438 5.802-7.306zm5.552-8.56h1.863v2.973c.645-1.254 2.184-3.367 4.584-3.367a4.7 4.7 0 0 1 1.648.286l-.466 1.755c-.444-.176-.92-.262-1.397-.25-2.364 0-3.904 2.794-4.37 3.796v11.9h-1.863V8.703zM244.968 0h1.862v25.786h-1.862V0zm2.04 16.188l7.486-7.485h2.328l-7.557 7.485 7.95 9.598h-2.328zM129.148 37.82h5.193c5.014 0 8.166 2.47 8.166 6.733 0 4.297-2.973 6.984-8.38 6.984h-3.008v10.135h-1.97V37.82zm4.943 12.033c4.548 0 6.4-2.077 6.4-5.23 0-2.973-1.8-5.122-6.34-5.122h-3.044v10.35h2.973zm11.427 6.807V44.6h1.863v11.675c0 2.507.895 4.12 3.5 4.12 2.543 0 4.655-2.4 5.23-3.402V44.6h1.862v13.8a14.42 14.42 0 0 0 .323 3.295h-1.898a18.73 18.73 0 0 1-.251-2.793c-1.23 1.945-3.357 3.142-5.658 3.188-3.58 0-4.978-2.328-4.978-5.408zm17.12 4.117v-24.9h1.862v10.28c1.15-1.255 2.775-1.97 4.477-1.97 4.87 0 7.234 3.903 7.234 8.882 0 4.8-3.223 9-8.452 9a9.65 9.65 0 0 1-5.121-1.289zm11.604-7.628c0-3.725-1.433-7.27-5.587-7.27a6.13 6.13 0 0 0-4.155 1.934v11.962c1.046.472 2.184.704 3.33.68 4.333 0 6.4-3.76 6.4-7.306zm5.796-17.263h1.863v25.786h-1.863V35.886zm6.95 3.654c-.006-.5.262-.983.702-1.24s.984-.256 1.424 0 .708.73.702 1.24c.02.518-.246 1.005-.7 1.27s-1 .265-1.446 0-.7-.752-.7-1.27zm.466 5.05h1.898v17.083h-1.898V44.6zm5.474 8.523c0-5.408 3.116-8.917 7.52-8.917a7.42 7.42 0 0 1 5.085 1.79l-.967 1.36a6.12 6.12 0 0 0-4.154-1.54c-3.796 0-5.516 3.295-5.516 7.235 0 3.796 1.684 7.413 5.48 7.413a6.89 6.89 0 0 0 4.369-1.54l.823 1.397a8.01 8.01 0 0 1-5.301 1.755c-4.906 0-7.342-4.37-7.342-8.954zm-64.32 44.442V73.703h5.086v19.77h8.882v4.083h-13.968zm20.15-19.7A2.86 2.86 0 0 1 145.857 75a2.82 2.82 0 0 1 2.901-2.794 2.85 2.85 0 0 1 2.05.785c.55.525.87 1.248.886 2a2.89 2.89 0 0 1-2.937 2.865zm-2.4 19.698V80.12h4.8v17.442h-4.8zm13.75-25.8v9.706a6.22 6.22 0 0 1 4.262-1.791c4.37 0 7.414 3.008 7.414 9.025 0 5.945-4 9.276-9.276 9.276-2.462.072-4.9-.405-7.163-1.397v-24.82h4.763zm0 22.097a6.73 6.73 0 0 0 2.4.395c2.65 0 4.226-1.97 4.226-5.55 0-3.26-1.1-5.265-3.7-5.265a4.14 4.14 0 0 0-2.937 1.325v9.096zm25.07-9.565a3.39 3.39 0 0 0-1.827-.394c-2.113 0-3.366 1.863-3.796 2.65v10.995h-4.763V80.114h4.763v2.364a5.16 5.16 0 0 1 4.405-2.793 4.78 4.78 0 0 1 2.364.466zm12.6 13.25c-.156-.6-.252-1.234-.287-1.863-1.218 1.45-3.013 2.287-4.906 2.292-2.973 0-5.264-1.8-5.264-4.907 0-4.55 4.692-6.196 9.3-6.196h.6v-1c0-1.505-.6-2.435-2.83-2.435a7.36 7.36 0 0 0-4.441 1.647l-2.077-2.9a10.36 10.36 0 0 1 7.055-2.507c4.763 0 7.02 1.827 7.02 6.447V92.4c-.024 1.732.144 3.462.5 5.158h-4.692zm-.537-7.736h-.6c-2.793 0-4.727.824-4.727 2.865.006.534.24 1.04.645 1.4s.94.508 1.468.437a4.27 4.27 0 0 0 3.223-1.54v-3.15zm18.937-5.514a3.39 3.39 0 0 0-1.826-.394c-2.113 0-3.367 1.863-3.797 2.65v10.995h-4.763V80.114h4.763v2.364a5.16 5.16 0 0 1 4.405-2.793c.815-.05 1.628.1 2.364.466zm2.87-4.2h5.085l3.868 11.497h.18l3.546-11.497h4.907l-7.2 19.304c-1.54 4.12-3.367 6.518-8.13 6.518-.906.024-1.8-.085-2.686-.322l.68-3.76a5.52 5.52 0 0 0 1.683.18c2.435 0 3.295-1.18 3.975-3.044l.645-1.8z"/><path d="M84.658 74.478c-3.742-1.83-8.6-2.748-12.137-4.712-2.8-1.552-4.946-4.117-7.96-5.498a60.03 60.03 0 0 0-9.468-3.453c-6.25-1.538-11.502.465-13.323 1.906-4.093 3.116-6.043 8.298-5.02 13.34.328 2.408 1.202 4.7 2.556 6.728 5.273 7.447 15.14 9.867 22.96 14.565.1.1.25.13.392.112a.5.5 0 0 0 .347-.213c1.313-1.93 2.38-3.486 4.592-4.406 2.246-.937 5.78-.62 8.826-.47 3.148.152 6.545-.143 7.687-1.77 1.364-1.942 1.284-5.857-.797-7.052-1.117-.644-2.783-.673-3.998-1.233a4.32 4.32 0 0 1-2.059-2.242 4.08 4.08 0 0 1-.26-3.312c.5-.88 1.723-.63 2.713-.4 1.964.45 5.244.93 7.133.1.557-.284-1.433-1.617-2.186-1.985zm-19.72-1.074c-.168.876-.702 2.567-1.556 2.677-.86.1-1.48-.812-2.097-1.158a24.41 24.41 0 0 0-3.873-1.411c-1.174-.4-2.783-.87-3.254-2-.707-1.667.944-2.455 2.134-2.82a12.11 12.11 0 0 1 3.4-.542c2.15-.103 4.2.204 4.92 1.555.464 1.172.577 2.454.325 3.7zM5.58 79.735c.038-.486.23-.946.546-1.316a34.49 34.49 0 0 1 19.427-11.197c1.505-.216 2.6-.112 2.837.492.432 1.058-.444 1.667-1.498 2.277C8.547 80.955 9.847 97.254 9.672 103.92c.055 2.727-1.914 3.224-2.406 1.94a48.04 48.04 0 0 1-1.685-26.126zm12.415-24c.302-.367.716-.627 1.178-.74 6.4-1.556 13.15-.982 19.203 1.634 1.143.506 1.658 1.223.907 1.704a38.83 38.83 0 0 0-5.444 3.925 2.47 2.47 0 0 1-1.782.357c-5.967-.787-9.066-1.25-18.035 2.15-1.376.58-2.614-.2-1.98-1.3a45.71 45.71 0 0 1 5.954-7.739zm11.593-7.04c-1.542-.176-1.564-1.304-.912-1.744a37.8 37.8 0 0 1 7.131-3.677c.62-.298 1.3-.414 1.992-.334 2.016.202 5.354 1.56 9.185 4.292 4.594 3.278 8.68 9.505 5.947 9a25.7 25.7 0 0 0-3.002-.44c-2.07-.184-3.43.03-4.383-.068a1.97 1.97 0 0 1-1.036-.55c-3.877-3.477-8.356-5.683-14.923-6.48zm73.8 54.43c-.414 1.3-.905 2.9-1.958 2.16-3.244-2.374-6.777-4.326-10.514-5.807-.226-.05-.2-.364-.12-.54.28-.656.47-1.348.56-2.055.2-.666.554-1.28 1.012-1.808a18.62 18.62 0 0 0 1.899-6.603c.18-1.752.077-3.52-.3-5.24a10.44 10.44 0 0 1-.639-2.32c.012-.74.36-1.514.432-2.386.208-2.525-2.98-4.63-4.718-5.442-3.945-1.842-8.14-3.5-12.4-5.738-2.406-1.27-4.336-4.052-6.266-5.546-1.95-1.504-8.216-4-10.72-4.65a1.04 1.04 0 0 1-.862-.863c-1.294-5.8-4.616-10.97-9.37-14.55-1.76-1.367.213-2.144 2.635-2.262 38.182-1.3 60.155 33.83 51.33 63.656zm-15.5-16.9l-.1-.988a2.61 2.61 0 0 1 1.049-1.084 10.66 10.66 0 0 1 1.472-1.036c.138-.087.23.114.25.154 1.407 2.137.88 7.418-.137 9.93-.118.255-.333.355-.42.168-.46-1.088-1.2-2.027-2.173-2.712a.53.53 0 0 1-.163-.44 10.83 10.83 0 0 0 .235-4zm-17.404 13a3.08 3.08 0 0 1 1.337-1.817c1.28-.803 3.4-.838 5.464-.98 1.882 0 3.75-.305 5.534-.905.857-.394 1.715-1.517 3.04-.945a2.2 2.2 0 0 1 1.156 1.417 5.15 5.15 0 0 1 .298 2.133c-.2 2.463-2.2 3.666-2.55 5.97.002.38-.102.75-.3 1.076-1.528 1.555-4.548 1.228-7.28.953-.886-.013-1.764-.16-2.605-.44a5.73 5.73 0 0 1-1.302-1.046 30.72 30.72 0 0 1-2.244-2.388c-.422-.36-.767-.804-1.015-1.3a6.83 6.83 0 0 1 .467-1.727zm-47.83 29.03a7.87 7.87 0 0 1-2-2.487c-4.676-7.474-7.297-33.945-1.27-42.924 1.918-3.146 3.95-1.695 3.274.736-1.154 5.46-.447 8.517 2.208 14.44 4.17 8.802 17.047 21.023 20.456 25.455 5.843 7.602 7.788 13.14 7.76 14.63-.032 1.145-.25 1.874-2.257 1.705a50.12 50.12 0 0 1-28.161-11.558zm6.05-35.7a21.79 21.79 0 0 1 .306-17.625c.72-1.355 1.42-2.24 2.338-1.985.998.278 1.23 1.3 1.366 3.193 1.016 15.714 10.52 21.005 22.46 26.553 9.42 4.815 20.135 10.32 29.116 23.654 1.36 1.925 1.555 3.093.02 4.196a48.87 48.87 0 0 1-17.694 8.036c-1.092.256-2.22.064-3.187-2.433-10.082-25.977-27-24.806-34.725-43.6zm62.444 31.94c-1.535 1.534-2.406.332-2.907-.654a45.57 45.57 0 0 0-7.635-12.103c-.27-.243-.336-.64-.164-.958a.79.79 0 0 1 .89-.387 5.5 5.5 0 0 0 3.037-.493c1.433-.874 2.442-2.3 2.787-3.944.427-1.507.447-1.95 1.37-2.044a3.04 3.04 0 0 1 .904.11 10.92 10.92 0 0 1 3.212 1.915 31.16 31.16 0 0 1 6.227 6.775c.252.582.177 1.254-.195 1.767-2.08 3.64-4.6 7.005-7.527 10.016z" fill="#fff"/><path d="M54.777 34.524c-30.4.102-54.952 24.8-54.885 55.2s24.738 54.98 55.127 54.948 55.008-24.675 55-55.064a54.9 54.9 0 0 0-16.14-39.06c-10.377-10.344-24.46-16.1-39.112-16.014zm-32.12 93.715a7.87 7.87 0 0 1-2-2.487c-4.676-7.474-7.297-33.945-1.27-42.924 1.918-3.146 3.95-1.695 3.274.736-1.154 5.46-.447 8.517 2.208 14.44 4.17 8.802 17.047 21.023 20.456 25.455 5.843 7.6 7.788 13.14 7.76 14.63-.032 1.145-.25 1.874-2.257 1.705a50.12 50.12 0 0 1-28.161-11.558zm80.74-25.14c-.414 1.3-.905 2.9-1.958 2.16a47.3 47.3 0 0 0-10.514-5.807c-.226-.05-.2-.364-.12-.54.28-.656.47-1.348.56-2.055.2-.666.554-1.28 1.012-1.808a18.62 18.62 0 0 0 1.899-6.603c.18-1.752.077-3.52-.3-5.24a10.44 10.44 0 0 1-.639-2.32c.012-.74.36-1.514.432-2.386.208-2.525-2.98-4.63-4.718-5.44-3.945-1.842-8.14-3.5-12.4-5.738-2.406-1.27-4.336-4.052-6.266-5.546-1.95-1.504-8.216-4-10.72-4.65a1.04 1.04 0 0 1-.862-.863c-1.294-5.8-4.616-10.97-9.37-14.55-1.76-1.367.213-2.144 2.635-2.262 38.182-1.3 60.155 33.83 51.33 63.656zM87.9 86.2c-.027-.194-.1-.853-.1-.988a2.61 2.61 0 0 1 1.049-1.084 10.66 10.66 0 0 1 1.472-1.036c.138-.087.23.114.25.154 1.407 2.137.88 7.418-.137 9.93-.118.255-.333.355-.42.168-.46-1.088-1.2-2.027-2.173-2.713a.53.53 0 0 1-.163-.44 10.83 10.83 0 0 0 .235-4zM41.77 62.707c1.82-1.44 7.072-3.444 13.323-1.906a60.02 60.02 0 0 1 9.468 3.454c3.013 1.38 5.16 3.946 7.96 5.498 3.536 1.964 8.395 2.88 12.137 4.712.753.368 2.742 1.7 2.186 1.984-1.9.83-5.17.35-7.133-.1-1-.23-2.224-.48-2.713.4a4.07 4.07 0 0 0 .26 3.31 4.32 4.32 0 0 0 2.059 2.242c1.215.56 2.88.6 3.998 1.233 2.082 1.196 2.16 5.1.797 7.052-1.142 1.627-4.54 1.923-7.687 1.77-3.047-.148-6.58-.467-8.826.47-2.212.92-3.28 2.474-4.592 4.405-.08.117-.207.194-.347.213s-.283-.02-.392-.112c-7.818-4.698-17.687-7.118-22.96-14.565-1.354-2.02-2.228-4.32-2.556-6.728a13.42 13.42 0 0 1 5.02-13.34zM29.588 48.672c-1.542-.176-1.564-1.304-.912-1.744a37.8 37.8 0 0 1 7.131-3.677c.62-.298 1.3-.414 1.992-.334 2.016.202 5.354 1.56 9.185 4.292 4.594 3.278 8.68 9.505 5.947 9a25.7 25.7 0 0 0-3.002-.44c-2.07-.184-3.43.03-4.383-.068a1.97 1.97 0 0 1-1.036-.55c-3.877-3.477-8.356-5.683-14.923-6.48zm40.896 50.535a3.08 3.08 0 0 1 1.337-1.817c1.28-.803 3.4-.838 5.464-.98 1.882 0 3.75-.305 5.534-.905.857-.394 1.715-1.517 3.04-.945a2.2 2.2 0 0 1 1.156 1.417 5.15 5.15 0 0 1 .298 2.133c-.2 2.463-2.2 3.666-2.55 5.97.002.38-.102.75-.3 1.076-1.528 1.555-4.548 1.228-7.28.953-.886-.013-1.764-.16-2.605-.44a5.73 5.73 0 0 1-1.302-1.046 30.72 30.72 0 0 1-2.244-2.388c-.422-.36-.767-.804-1.015-1.3a6.83 6.83 0 0 1 .467-1.727zM17.995 55.7c.302-.367.716-.627 1.178-.74 6.4-1.556 13.15-.982 19.203 1.634 1.143.506 1.658 1.223.907 1.704a38.83 38.83 0 0 0-5.444 3.925 2.47 2.47 0 0 1-1.782.357c-5.967-.787-9.066-1.25-18.035 2.15-1.376.58-2.614-.2-1.98-1.3 1.703-2.785 3.698-5.38 5.954-7.74zM5.6 79.733c.038-.486.23-.946.546-1.316A34.49 34.49 0 0 1 25.563 67.22c1.505-.215 2.6-.112 2.836.492.432 1.058-.444 1.668-1.497 2.277C8.557 80.953 9.858 97.252 9.682 103.92c.055 2.727-1.914 3.224-2.406 1.94a48.04 48.04 0 0 1-1.685-26.127zm23.1 12.814a21.79 21.79 0 0 1 .306-17.625c.72-1.355 1.42-2.24 2.338-1.985.998.278 1.23 1.3 1.366 3.193 1.016 15.714 10.52 21.005 22.46 26.553 9.42 4.815 20.135 10.32 29.116 23.654 1.36 1.925 1.555 3.093.02 4.196a48.87 48.87 0 0 1-17.694 8.036c-1.092.256-2.22.064-3.187-2.433-10.082-25.977-27-24.807-34.725-43.6zm62.44 31.948c-1.535 1.534-2.406.332-2.907-.654-1.892-4.4-4.47-8.496-7.635-12.103-.27-.243-.336-.64-.164-.958s.54-.48.9-.387a5.5 5.5 0 0 0 3.037-.493c1.433-.874 2.442-2.3 2.787-3.944.427-1.507.447-1.95 1.37-2.044a3.04 3.04 0 0 1 .904.11 10.92 10.92 0 0 1 3.212 1.915 31.16 31.16 0 0 1 6.227 6.775 1.8 1.8 0 0 1-.195 1.767c-2.08 3.64-4.6 7.005-7.527 10.016zM57.42 73.512a24.42 24.42 0 0 1 3.872 1.41c.617.346 1.237 1.268 2.097 1.158.854-.1 1.387-1.8 1.555-2.677a6.49 6.49 0 0 0-.325-3.69c-.72-1.35-2.772-1.658-4.92-1.555a12.12 12.12 0 0 0-3.401.542c-1.2.366-2.84 1.155-2.133 2.82.472 1.12 2.08 1.6 3.254 2z"/></svg>