<svg xmlns="http://www.w3.org/2000/svg" width="64" height="64" viewBox="5.5 -3.5 64 64"><circle fill="#fff" cx="37.785" cy="28.501" r="28.836"/><path d="M37.44-3.5c8.95 0 16.572 3.125 22.857 9.372 3.008 3.01 5.295 6.448 6.857 10.314S69.5 24.157 69.5 28.5c0 4.38-.773 8.486-2.314 12.313s-3.82 7.2-6.828 10.143c-3.123 3.085-6.666 5.448-10.63 7.086S41.67 60.5 37.443 60.5s-8.276-.808-12.143-2.43-7.333-3.96-10.4-7.027-5.4-6.524-7-10.372-2.4-7.904-2.4-12.17c0-4.23.81-8.295 2.428-12.2S11.9 8.9 14.985 5.814C21.08-.394 28.565-3.5 37.44-3.5zm.116 5.772C30.243 2.272 24.1 4.825 19.1 9.93c-2.515 2.553-4.448 5.42-5.8 8.6s-2.03 6.505-2.03 9.972a25.05 25.05 0 0 0 2.029 9.913c1.353 3.183 3.285 6.02 5.8 8.516s5.35 4.4 8.515 5.715 6.476 1.97 9.943 1.97c3.428 0 6.75-.665 9.973-2s6.12-3.257 8.713-5.77c5-4.876 7.484-11 7.484-18.344 0-3.543-.648-6.895-1.943-10.057s-3.18-5.98-5.654-8.458c-5.146-5.143-11.335-7.715-18.573-7.715zm-.4 20.915l-4.287 2.23c-.458-.95-1.02-1.62-1.685-2s-1.286-.57-1.858-.57c-2.856 0-4.286 1.885-4.286 5.657 0 1.714.362 3.084 1.085 4.113s1.79 1.544 3.2 1.544c1.867 0 3.18-.915 3.944-2.743l3.942 2a9.4 9.4 0 0 1-3.486 3.686c-1.484.896-3.123 1.343-4.914 1.343-2.857 0-5.163-.875-6.915-2.63s-2.628-4.2-2.628-7.313c0-3.048.886-5.466 2.657-7.257s4.01-2.686 6.715-2.686c3.963-.002 6.8 1.54 8.515 4.627zm18.457 0l-4.23 2.23c-.457-.95-1.02-1.62-1.686-2s-1.307-.57-1.914-.57c-2.857 0-4.287 1.885-4.287 5.657 0 1.714.363 3.084 1.086 4.113s1.79 1.544 3.2 1.544c1.865 0 3.18-.915 3.94-2.743l4 2c-.875 1.563-2.057 2.79-3.54 3.686s-3.105 1.343-4.857 1.343c-2.896 0-5.21-.875-6.94-2.63s-2.602-4.2-2.602-7.313c0-3.048.885-5.466 2.658-7.257s4.008-2.686 6.713-2.686c3.962-.002 6.783 1.54 8.458 4.627z"/></svg>