<svg xmlns="http://www.w3.org/2000/svg" width="64" height="64" viewBox="5.5 -3.5 64 64"><circle fill="#fff" cx="37.637" cy="28.806" r="28.276"/><path d="M37.443-3.5c8.988 0 16.57 3.085 22.742 9.257 6.208 6.2 9.315 13.79 9.315 22.743 0 8.99-3.05 16.476-9.145 22.456C53.88 57.32 46.242 60.5 37.443 60.5c-8.65 0-16.153-3.144-22.514-9.43C8.644 44.784 5.5 37.262 5.5 28.5s3.144-16.342 9.43-22.742C21.1-.415 28.604-3.5 37.443-3.5zm.114 5.772C30.28 2.272 24.13 4.825 19.1 9.93c-5.22 5.334-7.83 11.525-7.83 18.572 0 7.086 2.6 13.22 7.77 18.398s11.352 7.77 18.514 7.77c7.123 0 13.334-2.607 18.63-7.828 5.03-4.838 7.543-10.952 7.543-18.343 0-7.276-2.553-13.465-7.656-18.57S44.795 2.272 37.557 2.272zm8.572 18.285v13.085h-3.656v15.542H32.53v-15.54h-3.656V20.557c0-.572.2-1.057.6-1.457a1.99 1.99 0 0 1 1.457-.6h13.144c.533 0 1 .2 1.428.6s.628.886.628 1.457zM33.042 12.33c0-3.008 1.485-4.514 4.458-4.514s4.457 1.504 4.457 4.514c0 2.97-1.486 4.457-4.457 4.457s-4.458-1.486-4.458-4.457z"/></svg>