<svg xmlns="http://www.w3.org/2000/svg" width="64" height="64" viewBox="-0.5 0.5 64 64"><circle fill="#fff" cx="31.325" cy="32.873" r="30.096"/><path d="M31.5 14.08c-10.565 0-13.222 9.97-13.222 18.42S20.934 50.92 31.5 50.92s13.22-9.968 13.22-18.42-2.657-18.42-13.22-18.42zm0 6.946a4.88 4.88 0 0 1 1.188.157c.76.656 1.133 1.56.403 2.823l-7.036 12.93c-.216-1.636-.247-3.24-.247-4.437 0-3.722.258-11.473 5.692-11.473zm5.266 5.96c.373 1.984.426 4.056.426 5.513 0 3.723-.258 11.475-5.7 11.475-.428 0-.822-.045-1.188-.136-.07-.02-.134-.043-.202-.067l-.336-.1c-1.2-.515-1.972-1.446-.874-3.093l7.864-13.582zM31.433.5C22.556.5 15.074 3.6 8.98 9.8c-3.087 3.087-5.443 6.607-7.082 10.532C.297 24.22-.5 28.27-.5 32.5c0 4.268.797 8.32 2.397 12.168s3.92 7.312 6.97 10.396c3.085 3.05 6.55 5.4 10.398 7.037a31.61 31.61 0 0 0 12.17 2.398c4.23 0 8.34-.826 12.303-2.465s7.496-3.994 10.62-7.08c3-2.933 5.3-6.297 6.812-10.106C62.73 41 63.5 36.883 63.5 32.5c0-4.343-.77-8.454-2.33-12.303-1.562-3.885-3.848-7.32-6.857-10.33C48.025 3.62 40.385.5 31.433.5zm.134 5.76c7.238 0 13.412 2.566 18.554 7.7 2.477 2.477 4.375 5.3 5.67 8.47s1.95 6.518 1.95 10.06c0 7.354-2.516 13.454-7.506 18.33-2.592 2.516-5.502 4.447-8.74 5.78a25.51 25.51 0 0 1-9.927 1.994 26.01 26.01 0 0 1-9.949-1.948c-3.163-1.334-6-3.238-8.516-5.716-2.515-2.514-4.455-5.353-5.826-8.516-1.333-3.2-2.017-6.498-2.017-9.927a25.39 25.39 0 0 1 2.017-9.95c1.37-3.2 3.312-6.074 5.826-8.628 5-5.103 11.15-7.662 18.465-7.662z"/></svg>