<svg xmlns="http://www.w3.org/2000/svg" width="64" height="64" viewBox="5.5 -3.5 64 64"><circle fill="#fff" cx="37.47" cy="28.736" r="29.471"/><path d="M37.442-3.5c9 0 16.57 3.085 22.743 9.256C66.393 11.928 69.5 19.51 69.5 28.5s-3.048 16.476-9.145 22.458C53.88 57.32 46.24 60.5 37.442 60.5c-8.686 0-16.2-3.162-22.513-9.485C8.644 44.728 5.5 37.225 5.5 28.5c0-8.762 3.144-16.343 9.43-22.743C21.1-.414 28.604-3.5 37.442-3.5zM12.7 19.872c-.952 2.628-1.43 5.505-1.43 8.63 0 7.086 2.6 13.22 7.77 18.4 5.22 5.144 11.39 7.715 18.514 7.715 7.2 0 13.41-2.608 18.63-7.83 1.867-1.8 3.332-3.657 4.398-5.602l-12.056-5.37c-.42 2.02-1.44 3.667-3.057 4.942s-3.535 2.01-5.744 2.2v4.915h-3.714v-4.915c-3.543-.036-6.782-1.312-9.714-3.827l4.4-4.457c2.094 1.942 4.476 2.913 7.143 2.913 1.104 0 2.048-.246 2.83-.743s1.172-1.312 1.172-2.457c0-.8-.287-1.448-.858-1.943L37.9 31.127l-3.77-1.715-5.086-2.23-16.343-7.31zM37.557 2.214c-7.276 0-13.428 2.57-18.457 7.714-1.258 1.258-2.44 2.686-3.543 4.287l12.23 5.485c.533-1.676 1.542-3.02 3.03-4.028s3.218-1.57 5.2-1.686V9.07h3.715v4.915c2.934.153 5.6 1.143 8 2.97l-4.172 4.286c-1.793-1.257-3.62-1.885-5.486-1.885-.99 0-1.876.19-2.656.57s-1.172 1.03-1.172 1.943c0 .267.095.533.285.8l4.057 1.83 2.8 1.257 5.144 2.285 16.397 7.314a29.51 29.51 0 0 0 .801-6.857c0-7.353-2.552-13.543-7.656-18.573-5.067-5.143-11.24-7.714-18.515-7.714z"/></svg>