<svg xmlns="http://www.w3.org/2000/svg" width="384" height="384.017"><circle fill="#fff" cx="192.47" cy="195.736" r="159.471"/><path d="M192 .017C85.964.017 0 85.98 0 192.017c0 106.024 85.964 192 192 192s192-85.976 192-192c0-106.037-85.964-192-192-192zm0 347.998c-86.023 0-156.004-69.987-156.004-155.998a155.05 155.05 0 0 1 8.746-51.394l61.013 27.17c-1.643 8.165-2.534 16.682-2.534 25.48 0 76.65 57.212 98.247 93.208 98.247 21.227 0 39.598-6.852 53.98-16.904 2.733-1.96 5.21-3.93 7.484-5.936l-28-34.01c-.82.938-1.678 1.83-2.557 2.628-10.887 10.323-22.853 10.323-25.527 10.323-29.286 0-41.545-30.9-41.71-55.65l168.157 74.867c.2.035.363.035.527.07-26.534 48.31-77.903 81.11-136.793 81.11zm150.332-116.137l-173.436-77.412c6.258-11.332 16.218-19.85 31.122-19.85 8.64 0 15.49 2.862 20.887 6.476 2.24 1.62 4.188 3.237 5.83 4.868l31.263-32.178c-20.998-18.054-44.87-21.28-60.484-21.28-36.688 0-62.65 15.86-77.952 39.944L61.564 106.58C89.478 64.114 137.5 36.007 192 36.007c86.022 0 156 69.976 156 156a155.58 155.58 0 0 1-5.303 40.261c-.14-.14-.234-.26-.375-.4z"/></svg>