<svg xmlns="http://www.w3.org/2000/svg" width="64" height="64" viewBox="5.5 -3.5 64 64"><circle fill="#fff" cx="36.944" cy="28.631" r="29.105"/><path d="M37.443-3.5c8.95 0 16.53 3.105 22.742 9.315C66.393 11.987 69.5 19.548 69.5 28.5s-3.05 16.457-9.145 22.514C53.918 57.338 46.28 60.5 37.443 60.5c-8.65 0-16.153-3.143-22.514-9.43C8.644 44.786 5.5 37.264 5.5 28.5c0-8.723 3.144-16.285 9.43-22.685C21.138-.395 28.643-3.5 37.443-3.5zm.114 5.772c-7.276 0-13.428 2.572-18.457 7.715-5.22 5.296-7.83 11.467-7.83 18.513 0 7.125 2.6 13.257 7.77 18.4 5.18 5.182 11.352 7.77 18.514 7.77 7.123 0 13.334-2.61 18.63-7.828 5.03-4.876 7.543-11 7.543-18.343 0-7.313-2.553-13.485-7.656-18.513-5.067-5.145-11.24-7.715-18.514-7.715zM23.27 23.985c.61-3.924 2.19-6.962 4.742-9.114s5.656-3.228 9.314-3.228c5.027 0 9.03 1.62 12 4.856s4.457 7.39 4.457 12.457c0 4.915-1.543 9-4.627 12.256s-7.086 4.886-12.002 4.886c-3.62 0-6.743-1.085-9.37-3.257s-4.21-5.257-4.743-9.257h8.06c.2 3.886 2.533 5.83 7.03 5.83 2.246 0 4.057-.972 5.428-2.914s2.06-4.534 2.06-7.77c0-3.39-.63-5.97-1.885-7.743s-3.066-2.657-5.43-2.657c-4.268 0-6.667 1.885-7.2 5.656h2.343l-6.342 6.343-6.343-6.343 2.512.001z"/></svg>