<svg xmlns="http://www.w3.org/2000/svg" width="1968" height="1729.92" viewBox="0 0 46296.26 40689.13" shape-rendering="geometricPrecision" image-rendering="optimizeQuality" fill-rule="evenodd" fill="red"><path d="M23204.9 7530.98c2944.63-3188.84 6384.04-4639 10366.38-4077.2 4110.34 579.88 7609.97 3518.4 8854.17 7479 957.4 3047.58 559.96 6460.83-722.1 9573.35-1993.98 4840.97-7886.3 11722.1-18555.24 16532.85C12479.2 32228.22 6586.88 25347.1 4592.9 20506.13c-1282.05-3112.52-1679.47-6525.77-722.1-9573.35 1244.2-3960.6 4743.83-6899.13 8854.17-7479 3982.46-561.82 7421.94 888.46 10366.64 4077.48l56.53 61.36c.04.04 51.9-56.36 56.8-61.63zm-56.8-4522.44C16716.4-2039.46 6635.85-722.3 2000.45 6864.48 461.4 9383.5-116.67 12312.23 19.17 15219.93c235.64 5043.6 2412.75 9452.27 5610.6 13256.78C9935.8 33599.6 16161.04 37625.3 23012 40629.43l136.13 59.7 137-60.3c6815.65-3004.07 13075.56-7030.12 17381.33-12152.12 3198.08-3804.33 5374.97-8213.2 5610.6-13256.78 135.85-2907.7-442.2-5836.43-1981.3-8355.45C39660.36-722.3 29579.8-2039.47 23148.1 3008.54zm-164.46 18621.66l-2928-1451.38c-1017.73 1484-1758.2 2488.33-3897.08 1902.25-1678.9-460.05-2175.85-2300.18-2239.67-3843.76-87.17-2108.4 649.94-4543.46 3168.15-4413.24 1609.13 83.2 2294.75 1032.23 2661.15 1885.36l3197-1638.9c-1574.75-3004.3-5265.13-4026.05-8393.32-3188.8-3328.66 890.9-5014.6 3952.95-4955.5 7255.23 60.43 3375.58 1680.8 6291.5 5161.55 7052.54 1697.16 371.06 3545.13 284.8 5116.74-503.18 1216.27-609.83 2567.56-1786.86 3109-3056.12zm13802.46 0l-2928-1451.38c-1017.73 1484-1758.2 2488.33-3897.08 1902.25-1678.9-460.05-2175.86-2300.18-2239.67-3843.76-87.18-2108.4 649.94-4543.46 3168.15-4413.24 1609.13 83.2 2294.74 1032.23 2661.15 1885.36l3197-1638.9c-1574.75-3004.3-5265.14-4026.05-8393.32-3188.8-3328.66 890.9-5014.6 3952.95-4955.5 7255.23 60.42 3375.58 1680.8 6291.5 5161.55 7052.54 1697.16 371.06 3545.13 284.8 5116.74-503.18 1216.27-609.83 2567.56-1786.86 3109-3056.12z"/></svg>